HIERARCHY
ROOT hip
{
	OFFSET 0.000000 0.000000 0.000000 
	CHANNELS 6 Xposition Yposition Zposition Xrotation Zrotation Yrotation
	JOINT abdomen
	{
		OFFSET 0.000000 3.402643 0.000000 
		CHANNELS 3 Xrotation Zrotation Yrotation
		JOINT chest
		{
			OFFSET 0.000000 8.438565 -0.680529 
			CHANNELS 3 Xrotation Zrotation Yrotation
			JOINT neck
			{
				OFFSET 0.000000 10.207942 -0.272212 
				CHANNELS 3 Xrotation Zrotation Yrotation
				JOINT head
				{
					OFFSET 0.000000 3.130431 0.000000 
					CHANNELS 3 Xrotation Zrotation Yrotation
					End Site
					{
						OFFSET 0.000000 3.130435 0.000000 
					}
				}
			}
			JOINT lCollar
			{
				OFFSET 3.470700 6.669187 -0.816635 
				CHANNELS 3 Yrotation Zrotation Xrotation
				JOINT lShldr
				{
					OFFSET 3.198488 0.000000 0.000000 
					CHANNELS 3 Zrotation Yrotation Xrotation
					JOINT lForeArm
					{
						OFFSET 10.139888 0.000000 0.000000 
						CHANNELS 3 Yrotation Zrotation Xrotation
						JOINT lHand
						{
							OFFSET 8.370511 0.000000 0.000000 
							CHANNELS 3 Zrotation Yrotation Xrotation
							End Site
							{
								OFFSET 4.083176 0.000000 0.000000 
							}
						}
					}
				}
			}
			JOINT rCollar
			{
				OFFSET -3.470700 6.669187 -0.816635 
				CHANNELS 3 Yrotation Zrotation Xrotation
				JOINT rShldr
				{
					OFFSET -3.198488 0.000000 0.000000 
					CHANNELS 3 Zrotation Yrotation Xrotation
					JOINT rForeArm
					{
						OFFSET -10.139888 0.000000 0.000000 
						CHANNELS 3 Yrotation Zrotation Xrotation
						JOINT rHand
						{
							OFFSET -8.370511 0.000000 0.000000 
							CHANNELS 3 Zrotation Yrotation Xrotation
							End Site
							{
								OFFSET -4.083176 0.000000 0.000000 
							}
						}
					}
				}
			}
		}
	}
	JOINT lThigh
	{
		OFFSET 5.308129 -1.633274 1.361059 
		CHANNELS 3 Xrotation Zrotation Yrotation
		JOINT lShin
		{
			OFFSET -2.041588 -20.007561 0.000000 
			CHANNELS 3 Xrotation Zrotation Yrotation
			JOINT lFoot
			{
				OFFSET 0.000000 -19.190928 -1.224953 
				CHANNELS 3 Xrotation Yrotation Zrotation
				End Site
				{
					OFFSET 0.000000 -2.449906 4.627600 
				}
			}
		}
	}
	JOINT rThigh
	{
		OFFSET -5.308129 -1.633274 1.361059 
		CHANNELS 3 Xrotation Zrotation Yrotation
		JOINT rShin
		{
			OFFSET 2.041588 -20.007561 0.000000 
			CHANNELS 3 Xrotation Zrotation Yrotation
			JOINT rFoot
			{
				OFFSET 0.000000 -19.190928 -1.224953 
				CHANNELS 3 Xrotation Yrotation Zrotation
				End Site
				{
					OFFSET 0.000000 -2.449906 4.627600 
				}
			}
		}
	}
}
MOTION
Frames: 6
Frame Time: 0.016667
-2.355844 48.480568 0.960568 -2.851310 -167.455994 1.750490 -24.859200 -0.052153 7.839860 19.318600 -6.355950 3.417490 -16.528099 -5.984420 8.130280 2.160880 1.292090 3.416330 2.000000 -2.000000 0.000000 60.242401 -34.105598 73.410202 50.303200 -0.302174 0.105250 0.045135 -0.012676 -141.453003 -2.000000 2.000000 0.000000 -13.788400 53.865200 99.892899 -55.928200 0.291442 0.113253 179.908997 179.897995 3.410370 -45.037415 3.605928 10.607887 99.688675 3.821645 4.092538 -13.540678 -10.364364 -3.470342 0.451385 -7.641846 4.136370 89.940353 -5.897534 -4.596315 159.051956 -181.192001 -176.199875 
-2.062778 48.236046 1.500433 -3.477160 -167.054001 10.145000 -24.893999 -0.466432 7.926480 19.071899 -6.706750 3.396050 -16.256399 -4.786190 6.538830 2.103210 2.180350 2.838550 2.000000 -2.000000 0.000000 59.626099 -35.395100 74.053802 51.191898 -0.300532 0.106591 0.045867 -0.019858 -144.031006 -2.000000 2.000000 0.000000 -25.014400 52.060501 91.335800 -48.896999 0.304729 0.103025 179.906006 179.893997 1.945530 -44.874611 4.652561 10.964651 99.041084 3.921429 4.117418 -17.966185 -13.357954 -4.442189 0.261494 -7.576158 3.104467 90.136017 -5.907479 -4.601358 -24.724676 -0.582022 3.584162 
-1.781505 48.040813 2.056463 -4.333040 -166.824005 18.507500 -24.828501 -1.093960 7.525160 19.041599 -6.950720 3.103140 -15.638100 -4.541010 5.771760 2.337960 2.414420 2.508590 2.000000 -2.000000 0.000000 58.449902 -36.030899 75.703796 52.432098 -0.298206 0.108421 0.046772 -0.026109 -146.287003 -2.000000 2.000000 0.000000 -32.135300 51.093399 85.724800 -44.404701 0.312521 0.095668 179.903000 179.891006 0.226786 -45.102051 5.975188 11.353840 98.501198 4.017289 4.144754 -199.592453 -165.048355 174.938202 0.103445 -7.655972 2.437561 90.342247 -5.902056 -4.611474 -27.270260 -1.371772 3.213115 
-1.506073 47.778263 2.682164 -5.274160 -166.908997 26.734699 -24.833200 -1.605440 7.267740 19.089701 -7.282790 2.890810 -14.829600 -4.427480 4.902480 2.582530 2.628970 2.122890 2.000000 -2.000000 0.000000 57.353001 -37.018002 76.978500 53.867699 -0.295465 0.110475 0.047956 -0.032481 -148.600998 -2.000000 2.000000 0.000000 -34.083302 50.311901 84.408798 -42.627399 0.315441 0.092593 179.901001 179.889008 -0.759556 -45.651676 7.448278 11.588897 97.793915 4.117342 4.146181 -199.025955 -164.211365 174.823593 -0.194312 -7.395139 2.401368 90.684952 -5.904197 -4.612863 -27.569494 -1.368254 2.869530 
-1.239439 47.460766 3.354037 -6.095900 -167.345001 34.757801 -24.724001 -2.080550 6.887470 19.305500 -7.566580 2.625560 -14.362300 -4.258410 4.220930 2.700040 2.843640 1.840140 2.000000 -2.000000 0.000000 56.109699 -37.975601 78.169403 55.645000 -0.292001 0.112921 0.049706 -0.040019 -151.365005 -2.000000 2.000000 0.000000 -34.317200 49.745499 84.467499 -41.758202 0.316834 0.091056 179.903000 179.891006 0.080302 -46.318890 9.176597 11.676012 97.038696 4.211667 4.167038 -18.450937 -16.510847 -5.201902 -0.628686 -6.825418 2.912804 91.255676 -5.840738 -4.621808 -26.461443 -0.667610 2.565505 
-0.977388 47.137341 4.036547 -6.711720 -167.923004 42.523201 -24.517599 -2.514500 6.424880 19.511801 -7.801450 2.328030 -14.361900 -4.454340 3.655020 2.641410 2.882750 1.543330 2.000000 -2.000000 0.000000 54.897202 -39.147800 78.891403 57.744598 -0.287814 0.115672 0.052368 -0.049211 -154.783005 -2.000000 2.000000 0.000000 -35.107399 49.032600 84.604401 -40.508202 0.318796 0.088809 179.906006 179.893997 1.701390 -47.011436 11.098466 11.784457 96.264107 4.303022 4.192750 -17.915895 -16.877634 -5.175976 -1.165190 -6.295280 3.621518 92.071495 -5.731812 -4.600110 -25.295521 0.669607 2.211180 
